<svg width="1600" height="1080" viewBox="0 0 1600 1080" fill="none" xmlns="http://www.w3.org/2000/svg">
  <defs>
    <linearGradient id="bg" x1="140" y1="80" x2="1460" y2="1000" gradientUnits="userSpaceOnUse">
      <stop stop-color="#F8FBFF"/>
      <stop offset="1" stop-color="#E8F0FF"/>
    </linearGradient>
    <linearGradient id="hero" x1="320" y1="180" x2="980" y2="620" gradientUnits="userSpaceOnUse">
      <stop stop-color="#1E40AF"/>
      <stop offset="1" stop-color="#3B82F6"/>
    </linearGradient>
    <linearGradient id="accent" x1="0" y1="0" x2="1" y2="1">
      <stop stop-color="#F59E0B"/>
      <stop offset="1" stop-color="#F97316"/>
    </linearGradient>
    <filter id="shadow" x="0" y="0" width="2000" height="1400" filterUnits="userSpaceOnUse" color-interpolation-filters="sRGB">
      <feDropShadow dx="0" dy="22" stdDeviation="30" flood-color="#1E3A8A" flood-opacity="0.12"/>
    </filter>
    <filter id="softShadow" x="0" y="0" width="2000" height="1400" filterUnits="userSpaceOnUse" color-interpolation-filters="sRGB">
      <feDropShadow dx="0" dy="10" stdDeviation="18" flood-color="#0F172A" flood-opacity="0.08"/>
    </filter>
  </defs>

  <rect width="1600" height="1080" fill="url(#bg)"/>
  <circle cx="1290" cy="150" r="240" fill="#DCE9FF"/>
  <circle cx="220" cy="980" r="280" fill="#E7F9FF"/>

  <g filter="url(#shadow)">
    <rect x="54" y="44" width="1492" height="992" rx="32" fill="#F9FBFF"/>
  </g>

  <rect x="54" y="44" width="1492" height="84" rx="32" fill="#F9FBFF"/>
  <path d="M54 76C54 58.3269 68.3269 44 86 44H1514C1531.67 44 1546 58.3269 1546 76V128H54V76Z" fill="#FFFFFF"/>
  <rect x="94" y="68" width="178" height="36" rx="18" fill="#DBEAFE"/>
  <text x="118" y="91" fill="#1E3A8A" font-size="20" font-family="'Fira Sans', 'Segoe UI', sans-serif" font-weight="700">超级Agent</text>
  <rect x="304" y="68" width="120" height="36" rx="18" fill="#EFF6FF"/>
  <text x="333" y="91" fill="#1E40AF" font-size="16" font-family="'Fira Sans', 'Segoe UI', sans-serif" font-weight="600">+ 新对话</text>
  <rect x="1164" y="68" width="104" height="36" rx="18" fill="#F8FAFC" stroke="#DBEAFE"/>
  <text x="1194" y="91" fill="#475569" font-size="15" font-family="'Fira Sans', 'Segoe UI', sans-serif" font-weight="600">搜索</text>
  <rect x="1284" y="68" width="96" height="36" rx="18" fill="#F8FAFC" stroke="#DBEAFE"/>
  <text x="1314" y="91" fill="#475569" font-size="15" font-family="'Fira Sans', 'Segoe UI', sans-serif" font-weight="600">帮助</text>
  <rect x="1398" y="68" width="108" height="36" rx="18" fill="#1E40AF"/>
  <text x="1431" y="91" fill="#FFFFFF" font-size="15" font-family="'Fira Sans', 'Segoe UI', sans-serif" font-weight="700">user 退出</text>

  <rect x="78" y="152" width="218" height="852" rx="26" fill="#0F172A"/>
  <rect x="98" y="182" width="178" height="78" rx="22" fill="#172554"/>
  <text x="120" y="214" fill="#93C5FD" font-size="15" font-family="'Fira Code', monospace" font-weight="600">WORKSPACE</text>
  <text x="120" y="242" fill="#FFFFFF" font-size="22" font-family="'Fira Sans', 'Segoe UI', sans-serif" font-weight="700">智能工作台</text>

  <rect x="98" y="292" width="178" height="54" rx="18" fill="#F59E0B"/>
  <text x="126" y="325" fill="#111827" font-size="17" font-family="'Fira Sans', 'Segoe UI', sans-serif" font-weight="700">超级Agent</text>
  <rect x="98" y="362" width="178" height="54" rx="18" fill="#111C31"/>
  <text x="126" y="395" fill="#B6C2DA" font-size="17" font-family="'Fira Sans', 'Segoe UI', sans-serif" font-weight="600">知识库</text>
  <rect x="98" y="432" width="178" height="54" rx="18" fill="#111C31"/>
  <text x="126" y="465" fill="#B6C2DA" font-size="17" font-family="'Fira Sans', 'Segoe UI', sans-serif" font-weight="600">图库</text>
  <rect x="98" y="502" width="178" height="54" rx="18" fill="#111C31"/>
  <text x="126" y="535" fill="#B6C2DA" font-size="17" font-family="'Fira Sans', 'Segoe UI', sans-serif" font-weight="600">设置</text>

  <rect x="98" y="830" width="178" height="150" rx="20" fill="#111C31"/>
  <text x="120" y="864" fill="#93C5FD" font-size="15" font-family="'Fira Code', monospace" font-weight="600">TODAY</text>
  <text x="120" y="902" fill="#FFFFFF" font-size="34" font-family="'Fira Sans', 'Segoe UI', sans-serif" font-weight="700">12</text>
  <text x="174" y="902" fill="#B6C2DA" font-size="16" font-family="'Fira Sans', 'Segoe UI', sans-serif">次运行</text>
  <text x="120" y="935" fill="#B6C2DA" font-size="15" font-family="'Fira Sans', 'Segoe UI', sans-serif">3 个知识库处于在线状态</text>
  <text x="120" y="963" fill="#B6C2DA" font-size="15" font-family="'Fira Sans', 'Segoe UI', sans-serif">平均响应时间 1.2s</text>

  <rect x="320" y="152" width="870" height="852" rx="28" fill="#F9FBFF"/>

  <g filter="url(#softShadow)">
    <rect x="344" y="176" width="822" height="236" rx="28" fill="url(#hero)"/>
  </g>
  <text x="384" y="220" fill="#BFDBFE" font-size="15" font-family="'Fira Code', monospace" font-weight="600">INTELLIGENT ORCHESTRATION</text>
  <text x="384" y="280" fill="#FFFFFF" font-size="46" font-family="'Fira Sans', 'Segoe UI', sans-serif" font-weight="700">你好，我是超级Agent助手</text>
  <text x="384" y="326" fill="#DBEAFE" font-size="22" font-family="'Fira Sans', 'Segoe UI', sans-serif">统一处理对话、图像生成、视频创作与知识库检索。</text>
  <text x="384" y="358" fill="#DBEAFE" font-size="22" font-family="'Fira Sans', 'Segoe UI', sans-serif">新的布局把高频动作前置，减少深色大块压迫感，提升桌面与移动端可读性。</text>

  <rect x="384" y="382" width="168" height="16" rx="8" fill="#60A5FA" fill-opacity="0.38"/>
  <rect x="384" y="382" width="108" height="16" rx="8" fill="#F59E0B"/>
  <text x="568" y="395" fill="#FFFFFF" font-size="14" font-family="'Fira Sans', 'Segoe UI', sans-serif" font-weight="600">活跃能力覆盖度 68%</text>

  <rect x="900" y="208" width="226" height="146" rx="22" fill="#FFFFFF" fill-opacity="0.12" stroke="#93C5FD" stroke-opacity="0.32"/>
  <text x="926" y="244" fill="#BFDBFE" font-size="14" font-family="'Fira Code', monospace" font-weight="600">LIVE SNAPSHOT</text>
  <text x="926" y="286" fill="#FFFFFF" font-size="34" font-family="'Fira Sans', 'Segoe UI', sans-serif" font-weight="700">4</text>
  <text x="972" y="286" fill="#DBEAFE" font-size="16" font-family="'Fira Sans', 'Segoe UI', sans-serif">类核心能力</text>
  <text x="926" y="316" fill="#DBEAFE" font-size="15" font-family="'Fira Sans', 'Segoe UI', sans-serif">对话 / 图片 / 视频 / 知识检索</text>
  <text x="926" y="342" fill="#DBEAFE" font-size="15" font-family="'Fira Sans', 'Segoe UI', sans-serif">更清晰的层级与 CTA</text>

  <text x="344" y="456" fill="#1E3A8A" font-size="16" font-family="'Fira Code', monospace" font-weight="700">QUICK ACTIONS</text>
  <g filter="url(#softShadow)">
    <rect x="344" y="480" width="188" height="124" rx="24" fill="#FFFFFF"/>
    <rect x="550" y="480" width="188" height="124" rx="24" fill="#FFFFFF"/>
    <rect x="756" y="480" width="188" height="124" rx="24" fill="#FFFFFF"/>
    <rect x="962" y="480" width="188" height="124" rx="24" fill="#FFFFFF"/>
  </g>
  <rect x="366" y="504" width="46" height="46" rx="16" fill="#DBEAFE"/>
  <rect x="572" y="504" width="46" height="46" rx="16" fill="#E0F2FE"/>
  <rect x="778" y="504" width="46" height="46" rx="16" fill="#FEF3C7"/>
  <rect x="984" y="504" width="46" height="46" rx="16" fill="#DCFCE7"/>
  <text x="366" y="576" fill="#0F172A" font-size="22" font-family="'Fira Sans', 'Segoe UI', sans-serif" font-weight="700">文字沟通</text>
  <text x="572" y="576" fill="#0F172A" font-size="22" font-family="'Fira Sans', 'Segoe UI', sans-serif" font-weight="700">视频创作</text>
  <text x="778" y="576" fill="#0F172A" font-size="22" font-family="'Fira Sans', 'Segoe UI', sans-serif" font-weight="700">图片创作</text>
  <text x="984" y="576" fill="#0F172A" font-size="22" font-family="'Fira Sans', 'Segoe UI', sans-serif" font-weight="700">知识检索</text>
  <text x="366" y="597" fill="#64748B" font-size="15" font-family="'Fira Sans', 'Segoe UI', sans-serif">更直达的首屏操作入口</text>
  <text x="572" y="597" fill="#64748B" font-size="15" font-family="'Fira Sans', 'Segoe UI', sans-serif">脚本、镜头、文案分层展示</text>
  <text x="778" y="597" fill="#64748B" font-size="15" font-family="'Fira Sans', 'Segoe UI', sans-serif">素材上传和生成状态更清楚</text>
  <text x="984" y="597" fill="#64748B" font-size="15" font-family="'Fira Sans', 'Segoe UI', sans-serif">知识库开关与来源信息前置</text>

  <text x="344" y="650" fill="#1E3A8A" font-size="16" font-family="'Fira Code', monospace" font-weight="700">CONVERSATION</text>
  <g filter="url(#softShadow)">
    <rect x="344" y="674" width="822" height="210" rx="28" fill="#FFFFFF"/>
  </g>
  <rect x="372" y="702" width="92" height="28" rx="14" fill="#DBEAFE"/>
  <text x="402" y="721" fill="#1E3A8A" font-size="15" font-family="'Fira Sans', 'Segoe UI', sans-serif" font-weight="700">Agent</text>
  <text x="372" y="760" fill="#0F172A" font-size="20" font-family="'Fira Sans', 'Segoe UI', sans-serif">可以帮你整理知识库里的能力说明，并生成一版产品介绍海报。</text>
  <text x="372" y="791" fill="#64748B" font-size="16" font-family="'Fira Sans', 'Segoe UI', sans-serif">新的消息卡使用更高对比度文本、统一间距和更轻的边界，不再被厚重暗色背景吞掉。</text>

  <rect x="838" y="736" width="292" height="108" rx="22" fill="#F8FAFC" stroke="#E2E8F0"/>
  <text x="862" y="770" fill="#1E3A8A" font-size="15" font-family="'Fira Code', monospace" font-weight="700">CURRENT RUN</text>
  <text x="862" y="803" fill="#0F172A" font-size="18" font-family="'Fira Sans', 'Segoe UI', sans-serif" font-weight="700">知识库检索 · 执行中</text>
  <rect x="862" y="818" width="198" height="10" rx="5" fill="#DBEAFE"/>
  <rect x="862" y="818" width="142" height="10" rx="5" fill="#3B82F6"/>

  <g filter="url(#softShadow)">
    <rect x="344" y="902" width="822" height="84" rx="24" fill="#FFFFFF"/>
  </g>
  <text x="372" y="934" fill="#64748B" font-size="16" font-family="'Fira Sans', 'Segoe UI', sans-serif">输入消息，或引用知识库后发送...</text>
  <rect x="818" y="920" width="122" height="48" rx="18" fill="#EFF6FF"/>
  <text x="852" y="950" fill="#1E40AF" font-size="16" font-family="'Fira Sans', 'Segoe UI', sans-serif" font-weight="700">上传图片</text>
  <rect x="952" y="920" width="114" height="48" rx="18" fill="#EFF6FF"/>
  <text x="975" y="950" fill="#1E40AF" font-size="16" font-family="'Fira Sans', 'Segoe UI', sans-serif" font-weight="700">知识库</text>
  <rect x="1080" y="914" width="70" height="60" rx="22" fill="url(#accent)"/>
  <text x="1101" y="951" fill="#111827" font-size="24" font-family="'Fira Sans', 'Segoe UI', sans-serif" font-weight="700">→</text>

  <rect x="1210" y="152" width="312" height="852" rx="28" fill="#F1F5F9"/>
  <text x="1238" y="194" fill="#1E3A8A" font-size="16" font-family="'Fira Code', monospace" font-weight="700">SESSION HISTORY</text>

  <g filter="url(#softShadow)">
    <rect x="1234" y="218" width="264" height="168" rx="22" fill="#FFFFFF"/>
    <rect x="1234" y="404" width="264" height="168" rx="22" fill="#FFFFFF"/>
    <rect x="1234" y="590" width="264" height="168" rx="22" fill="#FFFFFF"/>
  </g>
  <rect x="1258" y="242" width="98" height="28" rx="14" fill="#DBEAFE"/>
  <text x="1288" y="261" fill="#1E3A8A" font-size="14" font-family="'Fira Sans', 'Segoe UI', sans-serif" font-weight="700">今天</text>
  <text x="1258" y="302" fill="#0F172A" font-size="20" font-family="'Fira Sans', 'Segoe UI', sans-serif" font-weight="700">产品卖点脚本整理</text>
  <text x="1258" y="332" fill="#64748B" font-size="15" font-family="'Fira Sans', 'Segoe UI', sans-serif">保留摘要、状态和最后一次运行能力标签。</text>
  <text x="1258" y="358" fill="#64748B" font-size="15" font-family="'Fira Sans', 'Segoe UI', sans-serif">减少视觉噪音，提升扫描效率。</text>

  <rect x="1258" y="428" width="98" height="28" rx="14" fill="#FEF3C7"/>
  <text x="1280" y="447" fill="#9A6700" font-size="14" font-family="'Fira Sans', 'Segoe UI', sans-serif" font-weight="700">知识库</text>
  <text x="1258" y="488" fill="#0F172A" font-size="20" font-family="'Fira Sans', 'Segoe UI', sans-serif" font-weight="700">能力清单问答</text>
  <text x="1258" y="518" fill="#64748B" font-size="15" font-family="'Fira Sans', 'Segoe UI', sans-serif">右栏卡片统一留白，避免旧版拥挤感。</text>
  <text x="1258" y="544" fill="#64748B" font-size="15" font-family="'Fira Sans', 'Segoe UI', sans-serif">为后续移动端折叠布局保留空间。</text>

  <rect x="1258" y="614" width="98" height="28" rx="14" fill="#DCFCE7"/>
  <text x="1288" y="633" fill="#166534" font-size="14" font-family="'Fira Sans', 'Segoe UI', sans-serif" font-weight="700">图片</text>
  <text x="1258" y="674" fill="#0F172A" font-size="20" font-family="'Fira Sans', 'Segoe UI', sans-serif" font-weight="700">科技感海报草图</text>
  <text x="1258" y="704" fill="#64748B" font-size="15" font-family="'Fira Sans', 'Segoe UI', sans-serif">文件状态和时间信息采用次级色。</text>
  <text x="1258" y="730" fill="#64748B" font-size="15" font-family="'Fira Sans', 'Segoe UI', sans-serif">重点内容由标题与标签承载。</text>

  <g filter="url(#softShadow)">
    <rect x="1246" y="806" width="240" height="162" rx="28" fill="#0F172A"/>
  </g>
  <text x="1270" y="842" fill="#93C5FD" font-size="14" font-family="'Fira Code', monospace" font-weight="700">MOBILE CHECK</text>
  <rect x="1298" y="862" width="138" height="82" rx="18" fill="#111C31"/>
  <rect x="1310" y="874" width="114" height="16" rx="8" fill="#1E40AF"/>
  <rect x="1310" y="898" width="114" height="10" rx="5" fill="#334155"/>
  <rect x="1310" y="916" width="88" height="10" rx="5" fill="#334155"/>
  <rect x="1310" y="932" width="52" height="8" rx="4" fill="#F59E0B"/>
  <text x="1270" y="966" fill="#B6C2DA" font-size="14" font-family="'Fira Sans', 'Segoe UI', sans-serif">预期在移动端折叠历史栏，保留主操作区。</text>
</svg>